<?xml version="1.0" encoding="UTF-8" standalone="no"?>
<svg width="39px" height="45px" viewBox="0 0 39 45" version="1.1" xmlns="http://www.w3.org/2000/svg" xmlns:xlink="http://www.w3.org/1999/xlink" xmlns:sketch="http://www.bohemiancoding.com/sketch/ns">
    <!-- Generator: Sketch 3.3.2 (12043) - http://www.bohemiancoding.com/sketch -->
    <title>logo</title>
    <desc>Created with Sketch.</desc>
    <defs></defs>
    <g id="Page-1" stroke="none" stroke-width="1" fill="none" fill-rule="evenodd" sketch:type="MSPage">
        <g id="1a" sketch:type="MSArtboardGroup" transform="translate(-223.000000, -18.000000)" fill="#FFFFFF">
            <g id="Nav" sketch:type="MSLayerGroup" transform="translate(223.000000, 18.000000)">
                <g id="logo" sketch:type="MSShapeGroup">
                    <path d="M37.7803074,25.3170417 L38.91243,25.970673 L28.0185753,44.8393829 L26.8864527,44.1857516 L37.7803074,25.3170417 L37.7803074,25.3170417 Z" id="Rectangle-7"></path>
                    <path d="M7.06268888,28.7991119 L8.86719261,35.5336115 L9.32937973,34.7330799 L2.59488011,36.5375837 L3.39541168,36.9997708 L1.59090794,30.2652712 L1.12872083,31.0658027 L7.86322045,29.261299 L7.06268888,28.7991119 L7.06268888,28.7991119 Z M8.32540756,28.4607674 L8.15623533,27.8294081 L7.524876,27.9985803 L0.79037638,29.8030841 L0.159017041,29.9722563 L0.328189266,30.6036156 L2.132693,37.3381152 L2.30186522,37.9694746 L2.93322456,37.8003024 L9.66772418,35.9957986 L10.2990835,35.8266264 L10.1299113,35.1952671 L8.32540756,28.4607674 L8.32540756,28.4607674 Z" id="Shape"></path>
                    <path d="M17.2122905,16.9944134 C21.9051682,16.9944134 25.7094972,13.1900844 25.7094972,8.4972067 C25.7094972,3.80432903 21.9051682,0 17.2122905,0 C12.5194128,0 8.7150838,3.80432903 8.7150838,8.4972067 C8.7150838,13.1900844 12.5194128,16.9944134 17.2122905,16.9944134 L17.2122905,16.9944134 Z M17.2122905,15.6871508 C13.241394,15.6871508 10.0223464,12.4681032 10.0223464,8.4972067 C10.0223464,4.52631021 13.241394,1.30726257 17.2122905,1.30726257 C21.183187,1.30726257 24.4022346,4.52631021 24.4022346,8.4972067 C24.4022346,12.4681032 21.183187,15.6871508 17.2122905,15.6871508 L17.2122905,15.6871508 Z" id="Shape"></path>
                </g>
            </g>
        </g>
    </g>
</svg>